<?xml version="1.0" encoding="UTF-8" standalone="no"?>
<!-- Created with Inkscape (http://www.inkscape.org/) -->

<svg
   width="210mm"
   height="297mm"
   viewBox="0 0 210 297"
   version="1.1"
   id="svg1"
   inkscape:version="1.4.3 (0d15f75042, 2025-12-25)"
   sodipodi:docname="favicon.svg"
   xmlns:inkscape="http://www.inkscape.org/namespaces/inkscape"
   xmlns:sodipodi="http://sodipodi.sourceforge.net/DTD/sodipodi-0.dtd"
   xmlns="http://www.w3.org/2000/svg"
   xmlns:svg="http://www.w3.org/2000/svg">
  <sodipodi:namedview
     id="namedview1"
     pagecolor="#ffffff"
     bordercolor="#000000"
     borderopacity="0.25"
     inkscape:showpageshadow="2"
     inkscape:pageopacity="0.0"
     inkscape:pagecheckerboard="0"
     inkscape:deskcolor="#d1d1d1"
     inkscape:document-units="mm"
     inkscape:zoom="0.55307694"
     inkscape:cx="-55.146034"
     inkscape:cy="618.35881"
     inkscape:window-width="1920"
     inkscape:window-height="1043"
     inkscape:window-x="0"
     inkscape:window-y="0"
     inkscape:window-maximized="1"
     inkscape:current-layer="layer1" />
  <defs
     id="defs1" />
  <g
     inkscape:label="Layer 1"
     inkscape:groupmode="layer"
     id="layer1">
    <circle
       style="fill:#e7e7e7;fill-opacity:1;stroke:none;stroke-width:0.461115;stroke-opacity:1"
       id="path10"
       cx="105"
       cy="148.5"
       r="68.193619"
       inkscape:export-filename="favicon.png"
       inkscape:export-xdpi="81.644951"
       inkscape:export-ydpi="81.644951" />
    <g
       id="g10"
       transform="translate(-0.53981,24.01716)">
      <path
         d="m 164.39875,124.48284 h -58.85894 v 58.85894 a 58.858768,58.858768 0 0 0 58.85894,-58.85894 z"
         style="fill:#f6c13f;fill-opacity:1;stroke:none;stroke-width:0.499999"
         id="path5" />
      <path
         d="m 105.53981,65.6239 v 58.85894 h 58.85894 A 58.858768,58.858768 0 0 0 105.53981,65.6239 Z"
         style="fill:#a9e886;fill-opacity:1;stroke:none;stroke-width:0.499999"
         id="path6" />
      <path
         d="m 46.68087,124.48284 h 58.85894 V 65.6239 a 58.858768,58.858768 0 0 0 -58.85894,58.85894 z"
         style="fill:#e63960;fill-opacity:1;stroke:none;stroke-width:0.499999"
         id="path7" />
      <path
         d="M 105.53981,183.34178 V 124.48284 H 46.68087 a 58.858768,58.858768 0 0 0 58.85894,58.85894 z"
         style="fill:#f8f6da;fill-opacity:1;stroke:none;stroke-width:0.499999"
         id="path8" />
    </g>
    <path
       d="m 130.08715,85.088863 a 68.193619,68.193619 0 0 1 43.10641,63.411117 68.193619,68.193619 0 0 1 -68.19377,68.19377 68.193619,68.193619 0 0 1 -45.691782,-17.57154 70.107155,70.107155 0 0 0 52.628312,23.79028 70.107155,70.107155 0 0 0 70.10735,-70.10683 70.107155,70.107155 0 0 0 -51.95652,-67.716797 z"
       style="fill-opacity:1;stroke-width:0.474054;fill:#979797"
       id="path11" />
    <rect
       style="fill:#000000;fill-opacity:0;stroke:none;stroke-width:0.499999;stroke-opacity:1"
       id="rect11"
       width="155.55156"
       height="155.55156"
       x="27.224216"
       y="70.72422" />
  </g>
</svg>
