<?xml version="1.0" encoding="UTF-8" standalone="no"?>
<!-- Created with Inkscape (http://www.inkscape.org/) -->

<svg
   width="128.54248mm"
   height="128.54248mm"
   viewBox="0 0 128.54248 128.54248"
   version="1.1"
   id="svg1"
   inkscape:version="1.4.3 (0d15f75042, 2025-12-25)"
   sodipodi:docname="favicon.svg"
   xmlns:inkscape="http://www.inkscape.org/namespaces/inkscape"
   xmlns:sodipodi="http://sodipodi.sourceforge.net/DTD/sodipodi-0.dtd"
   xmlns="http://www.w3.org/2000/svg"
   xmlns:svg="http://www.w3.org/2000/svg">
  <sodipodi:namedview
     id="namedview1"
     pagecolor="#ffffff"
     bordercolor="#000000"
     borderopacity="0.25"
     inkscape:showpageshadow="2"
     inkscape:pageopacity="0.0"
     inkscape:pagecheckerboard="0"
     inkscape:deskcolor="#d1d1d1"
     inkscape:document-units="mm"
     inkscape:zoom="0.55307694"
     inkscape:cx="-55.146034"
     inkscape:cy="618.35881"
     inkscape:window-width="1920"
     inkscape:window-height="1043"
     inkscape:window-x="0"
     inkscape:window-y="0"
     inkscape:window-maximized="1"
     inkscape:current-layer="layer1">
    <inkscape:page
       x="1.8281251e-20"
       y="1.2641771e-20"
       width="128.5425"
       height="128.5425"
       id="page2"
       margin="0"
       bleed="0" />
  </sodipodi:namedview>
  <defs
     id="defs1" />
  <g
     inkscape:label="Layer 1"
     inkscape:groupmode="layer"
     id="layer1"
     transform="translate(-40.728758,-84.228763)">
    <path
       d="M 169.27125,148.50001 H 105 v 64.27124 a 64.271055,64.271055 0 0 0 64.27125,-64.27124 z"
       style="fill:#f5b927;fill-opacity:1;stroke:none;stroke-width:0.545976"
       id="path1" />
    <path
       d="m 105,84.228762 v 64.271248 h 64.27125 A 64.271055,64.271055 0 0 0 105,84.228762 Z"
       style="fill:#96e269;fill-opacity:1;stroke:none;stroke-width:0.545976"
       id="path2" />
    <path
       d="M 40.728761,148.50001 H 105 V 84.228762 A 64.271055,64.271055 0 0 0 40.728761,148.50001 Z"
       style="fill:#de1c48;fill-opacity:1;stroke:none;stroke-width:0.545976"
       id="path3" />
    <path
       d="M 105,212.77125 V 148.50001 H 40.728761 A 64.271055,64.271055 0 0 0 105,212.77125 Z"
       style="fill:#f5eec2;fill-opacity:1;stroke:none;stroke-width:0.545976"
       id="path4" />
    <g
       id="g10"
       transform="translate(-0.53981,24.01716)">
      <path
         d="m 164.39875,124.48284 h -58.85894 v 58.85894 a 58.858768,58.858768 0 0 0 58.85894,-58.85894 z"
         style="fill:#f6c13f;fill-opacity:1;stroke:none;stroke-width:0.499999"
         id="path5" />
      <path
         d="m 105.53981,65.6239 v 58.85894 h 58.85894 A 58.858768,58.858768 0 0 0 105.53981,65.6239 Z"
         style="fill:#a9e886;fill-opacity:1;stroke:none;stroke-width:0.499999"
         id="path6" />
      <path
         d="m 46.68087,124.48284 h 58.85894 V 65.6239 a 58.858768,58.858768 0 0 0 -58.85894,58.85894 z"
         style="fill:#e63960;fill-opacity:1;stroke:none;stroke-width:0.499999"
         id="path7" />
      <path
         d="M 105.53981,183.34178 V 124.48284 H 46.68087 a 58.858768,58.858768 0 0 0 58.85894,58.85894 z"
         style="fill:#f8f6da;fill-opacity:1;stroke:none;stroke-width:0.499999"
         id="path8" />
    </g>
    <rect
       style="fill:#000000;fill-opacity:0;stroke:none;stroke-width:0.499999;stroke-opacity:1"
       id="rect11"
       width="155.55156"
       height="155.55156"
       x="27.224216"
       y="70.72422" />
  </g>
</svg>
